<svg xmlns="http://www.w3.org/2000/svg" version="1.1" xmlns:xlink="http://www.w3.org/1999/xlink" xmlns:svgjs="http://svgjs.dev/svgjs" width="1440" height="560" preserveAspectRatio="none" viewBox="0 0 1440 560"><g mask="url(&quot;#SvgjsMask1000&quot;)" fill="none"><rect width="1440" height="560" x="0" y="0" fill="#0e2a47"></rect><path d="M1153 241L1152 547" stroke-width="10" stroke="url(&quot;#SvgjsLinearGradient1001&quot;)" stroke-linecap="round" class="Down"></path><path d="M1056 550L1055 305" stroke-width="8" stroke="url(&quot;#SvgjsLinearGradient1001&quot;)" stroke-linecap="round" class="Down"></path><path d="M583 354L582 175" stroke-width="10" stroke="url(&quot;#SvgjsLinearGradient1002&quot;)" stroke-linecap="round" class="Up"></path><path d="M750 392L749 755" stroke-width="8" stroke="url(&quot;#SvgjsLinearGradient1002&quot;)" stroke-linecap="round" class="Up"></path><path d="M1301 35L1300 175" stroke-width="8" stroke="url(&quot;#SvgjsLinearGradient1001&quot;)" stroke-linecap="round" class="Down"></path><path d="M524 148L523 347" stroke-width="6" stroke="url(&quot;#SvgjsLinearGradient1001&quot;)" stroke-linecap="round" class="Down"></path><path d="M286 439L285 617" stroke-width="6" stroke="url(&quot;#SvgjsLinearGradient1001&quot;)" stroke-linecap="round" class="Down"></path><path d="M877 57L876 -281" stroke-width="6" stroke="url(&quot;#SvgjsLinearGradient1001&quot;)" stroke-linecap="round" class="Down"></path><path d="M1432 522L1431 869" stroke-width="6" stroke="url(&quot;#SvgjsLinearGradient1001&quot;)" stroke-linecap="round" class="Down"></path><path d="M843 132L842 -286" stroke-width="8" stroke="url(&quot;#SvgjsLinearGradient1001&quot;)" stroke-linecap="round" class="Down"></path><path d="M321 532L320 895" stroke-width="10" stroke="url(&quot;#SvgjsLinearGradient1002&quot;)" stroke-linecap="round" class="Up"></path><path d="M374 377L373 175" stroke-width="8" stroke="url(&quot;#SvgjsLinearGradient1002&quot;)" stroke-linecap="round" class="Up"></path><path d="M567 16L566 405" stroke-width="10" stroke="url(&quot;#SvgjsLinearGradient1001&quot;)" stroke-linecap="round" class="Down"></path><path d="M1287 48L1286 353" stroke-width="10" stroke="url(&quot;#SvgjsLinearGradient1001&quot;)" stroke-linecap="round" class="Down"></path><path d="M374 147L373 407" stroke-width="10" stroke="url(&quot;#SvgjsLinearGradient1001&quot;)" stroke-linecap="round" class="Down"></path><path d="M1197 52L1196 -248" stroke-width="10" stroke="url(&quot;#SvgjsLinearGradient1001&quot;)" stroke-linecap="round" class="Down"></path><path d="M53 100L52 373" stroke-width="10" stroke="url(&quot;#SvgjsLinearGradient1002&quot;)" stroke-linecap="round" class="Up"></path><path d="M1241 146L1240 404" stroke-width="6" stroke="url(&quot;#SvgjsLinearGradient1002&quot;)" stroke-linecap="round" class="Up"></path><path d="M780 265L779 501" stroke-width="6" stroke="url(&quot;#SvgjsLinearGradient1001&quot;)" stroke-linecap="round" class="Down"></path><path d="M622 449L621 82" stroke-width="8" stroke="url(&quot;#SvgjsLinearGradient1001&quot;)" stroke-linecap="round" class="Down"></path><path d="M479 160L478 442" stroke-width="8" stroke="url(&quot;#SvgjsLinearGradient1002&quot;)" stroke-linecap="round" class="Up"></path><path d="M838 54L837 382" stroke-width="8" stroke="url(&quot;#SvgjsLinearGradient1002&quot;)" stroke-linecap="round" class="Up"></path><path d="M1223 246L1222 -145" stroke-width="8" stroke="url(&quot;#SvgjsLinearGradient1002&quot;)" stroke-linecap="round" class="Up"></path><path d="M1180 303L1179 21" stroke-width="8" stroke="url(&quot;#SvgjsLinearGradient1001&quot;)" stroke-linecap="round" class="Down"></path><path d="M246 547L245 212" stroke-width="6" stroke="url(&quot;#SvgjsLinearGradient1001&quot;)" stroke-linecap="round" class="Down"></path><path d="M959 42L958 331" stroke-width="10" stroke="url(&quot;#SvgjsLinearGradient1002&quot;)" stroke-linecap="round" class="Up"></path><path d="M260 553L259 155" stroke-width="6" stroke="url(&quot;#SvgjsLinearGradient1002&quot;)" stroke-linecap="round" class="Up"></path><path d="M1036 121L1035 -292" stroke-width="6" stroke="url(&quot;#SvgjsLinearGradient1001&quot;)" stroke-linecap="round" class="Down"></path><path d="M672 474L671 766" stroke-width="8" stroke="url(&quot;#SvgjsLinearGradient1002&quot;)" stroke-linecap="round" class="Up"></path><path d="M792 175L791 -93" stroke-width="10" stroke="url(&quot;#SvgjsLinearGradient1001&quot;)" stroke-linecap="round" class="Down"></path><path d="M647 424L646 626" stroke-width="6" stroke="url(&quot;#SvgjsLinearGradient1002&quot;)" stroke-linecap="round" class="Up"></path><path d="M65 469L64 856" stroke-width="6" stroke="url(&quot;#SvgjsLinearGradient1002&quot;)" stroke-linecap="round" class="Up"></path><path d="M1006 158L1005 -9" stroke-width="8" stroke="url(&quot;#SvgjsLinearGradient1002&quot;)" stroke-linecap="round" class="Up"></path><path d="M291 186L290 529" stroke-width="10" stroke="url(&quot;#SvgjsLinearGradient1002&quot;)" stroke-linecap="round" class="Up"></path><path d="M906 465L905 647" stroke-width="10" stroke="url(&quot;#SvgjsLinearGradient1001&quot;)" stroke-linecap="round" class="Down"></path><path d="M1077 133L1076 280" stroke-width="8" stroke="url(&quot;#SvgjsLinearGradient1001&quot;)" stroke-linecap="round" class="Down"></path></g><defs><mask id="SvgjsMask1000"><rect width="1440" height="560" fill="#ffffff"></rect></mask><linearGradient x1="0%" y1="0%" x2="0%" y2="100%" id="SvgjsLinearGradient1001"><stop stop-color="rgba(28, 83, 142, 0)" offset="0"></stop><stop stop-color="#1c538e" offset="1"></stop></linearGradient><linearGradient x1="0%" y1="100%" x2="0%" y2="0%" id="SvgjsLinearGradient1002"><stop stop-color="rgba(28, 83, 142, 0)" offset="0"></stop><stop stop-color="#1c538e" offset="1"></stop></linearGradient></defs></svg>